<?xml version="1.0" encoding="UTF-8" standalone="no"?>
<!-- Created with Inkscape (http://www.inkscape.org/) -->

<svg
   xmlns:dc="http://purl.org/dc/elements/1.1/"
   xmlns:cc="http://creativecommons.org/ns#"
   xmlns:rdf="http://www.w3.org/1999/02/22-rdf-syntax-ns#"
   xmlns:svg="http://www.w3.org/2000/svg"
   xmlns="http://www.w3.org/2000/svg"
   xmlns:xlink="http://www.w3.org/1999/xlink"
   xmlns:sodipodi="http://sodipodi.sourceforge.net/DTD/sodipodi-0.dtd"
   xmlns:inkscape="http://www.inkscape.org/namespaces/inkscape"
   width="180"
   height="160"
   id="svg2"
   sodipodi:version="0.32"
   inkscape:version="0.91 r13725"
   version="1.1"
   sodipodi:docname="bipbip-logo-text.svg"
   inkscape:export-filename="bipbip-logo.png"
   inkscape:export-xdpi="360"
   inkscape:export-ydpi="360">
  <defs
     id="defs4">
    <linearGradient
       id="linearGradient4219-7"
       inkscape:collect="always">
      <stop
         id="stop4243"
         offset="0"
         style="stop-color:#00759b;stop-opacity:1;" />
      <stop
         id="stop4245"
         offset="1"
         style="stop-color:#00759b;stop-opacity:0;" />
    </linearGradient>
    <linearGradient
       inkscape:collect="always"
       xlink:href="#linearGradient4219-7"
       id="linearGradient4251"
       x1="52.547859"
       y1="994.11121"
       x2="41.54538"
       y2="1007.8612"
       gradientUnits="userSpaceOnUse"
       gradientTransform="translate(10,-24)" />
    <filter
       inkscape:collect="always"
       style="color-interpolation-filters:sRGB"
       id="filter3452"
       x="-0.028509883"
       width="1.0570198"
       y="-0.031654473"
       height="1.063309">
      <feGaussianBlur
         inkscape:collect="always"
         stdDeviation="1.9076406"
         id="feGaussianBlur3454" />
    </filter>
  </defs>
  <sodipodi:namedview
     id="base"
     pagecolor="#ffffff"
     bordercolor="#666666"
     borderopacity="1.0"
     inkscape:pageopacity="0.0"
     inkscape:pageshadow="2"
     inkscape:zoom="2"
     inkscape:cx="-53.769336"
     inkscape:cy="47.062729"
     inkscape:document-units="px"
     inkscape:current-layer="layer1"
     inkscape:window-width="1920"
     inkscape:window-height="1043"
     inkscape:window-x="0"
     inkscape:window-y="0"
     showgrid="false"
     units="px"
     borderlayer="true"
     inkscape:window-maximized="1" />
  <metadata
     id="metadata7">
    <rdf:RDF>
      <cc:Work
         rdf:about="">
        <dc:format>image/svg+xml</dc:format>
        <dc:type
           rdf:resource="http://purl.org/dc/dcmitype/StillImage" />
        <dc:title></dc:title>
      </cc:Work>
    </rdf:RDF>
  </metadata>
  <g
     inkscape:label="Calque 1"
     inkscape:groupmode="layer"
     id="layer1"
     transform="translate(0,-892.36216)"
     style="opacity:0.98999999">
    <path
       style="opacity:0.478;fill:#002e3d;fill-opacity:0.99215686;stroke:none;stroke-width:2;stroke-linecap:round;stroke-linejoin:round;stroke-miterlimit:4;stroke-dasharray:none;stroke-dashoffset:0;stroke-opacity:1;filter:url(#filter3452)"
       d="m 74,900.36216 a 64,64 0 0 0 -64,64 64,64 0 0 0 43.423828,60.51954 c -1.195644,0.8254 -3.634034,2.4458 -4.36914,3.7871 l -0.06836,0.1211 -0.06055,0.123 c -0.65099,1.2995 -1.192113,3.0387 -1.076172,5.0723 0.111956,1.1327 0.335041,2.2532 0.714844,3.2051 1.550275,3.0213 3.62133,4.8223 7.076172,5.4492 2.342057,0.3365 4.331915,0.3277 6.523437,0.1504 5.012735,-0.6119 8.869804,-1.6047 12.945313,-3.8984 1.497461,3.711 4.289221,5.9379 8.304687,6.1054 4.257126,-0.2596 7.533641,-2.0235 8.822271,-6.2265 1.17637,-2.9397 2.36916,-5.5379 3.67382,-8.1563 2.50941,-0.9868 5.02425,-2.2727 6.98047,-3.8222 0.98643,0.4634 2.04805,0.7934 3.10742,0.9062 2.67781,4.0433 5.53267,9.4351 10.84766,9.3984 8.99462,-0.7628 9.01984,-5.2683 13.06446,-11.6992 l 0.0332,-0.053 0.0332,-0.055 c 0.26584,-0.4368 0.51947,-0.8223 0.78321,-1.25 l 1.42578,-0.084 c 0.0181,3.8638 1.46809,8.0484 5.85351,8.2891 4.38542,0.2407 7.96847,-0.8839 10.26953,-4.3008 0.94114,-1.7248 2.05137,-3.4915 3.10547,-5.0391 3.64362,1.1052 7.6771,-0.3018 10.65821,-1.7187 4.02811,-3.2053 8.11168,-7.0485 8.45898,-10.334 0.3473,-3.2854 -0.97468,-4.5145 -2.11328,-6.0508 0.20918,-0.8968 0.29703,-1.7556 0.25195,-2.4629 l -0.0195,-0.289 -0.0391,-0.2852 c -0.28891,-2.042 -1.91733,-4.7191 -3.88281,-5.91601 l -0.002,0 -0.002,0 c -3.2072,-1.8413 -6.57718,-2.46573 -9.61719,-2.26953 l -0.002,0 -0.002,0 c -2.14992,0.1696 -4.63055,1.46979 -5.98633,3.05864 -0.8167,0.9571 -1.35027,2.2951 -1.69531,3.6816 -0.67118,-1.9792 -2.05507,-3.7775 -3.55079,-4.91016 -1.80848,-1.3815 -4.30461,-2.11962 -6.43164,-2.07032 -0.73713,-1.4192 -1.81477,-2.6951 -2.94726,-3.5039 -0.43908,-0.31281 -0.94343,-0.59658 -1.48633,-0.8418 a 64,64 0 0 0 4.99414,-24.63086 64,64 0 0 0 -64.000003,-64 z"
       id="circle3338"
       inkscape:connector-curvature="0" />
    <circle
       style="opacity:1;fill:#fff6d5;fill-opacity:1;stroke:none;stroke-width:2;stroke-linecap:round;stroke-linejoin:round;stroke-miterlimit:4;stroke-dasharray:none;stroke-dashoffset:0;stroke-opacity:1"
       id="path4138"
       cx="-74"
       cy="964.36212"
       r="64"
       transform="scale(-1,1)" />
    <path
       style="fill:#f1a100;fill-opacity:1;fill-rule:evenodd;stroke:none;stroke-width:1px;stroke-linecap:butt;stroke-linejoin:miter;stroke-opacity:1"
       d="m 15.070312,968.63169 c -1.43119,0.0479 -3.130747,0.66434 -4.783203,1.47266 a 64,64 0 0 0 21.646485,42.29685 l 2.15625,-12.3222 c -5.654519,-6.6311 -12.283579,-19.13258 -15.78125,-29.34575 -0.544296,-1.58934 -1.74411,-2.15158 -3.238282,-2.10156 z m 25.394532,36.97661 1.636718,3.0449 c -0.07594,-0.9883 -0.562329,-2.0085 -1.636718,-3.0449 z m -0.96875,7.7597 -4.425782,1.6836 a 64,64 0 0 0 0.933594,0.7207 c 1.232084,-0.7032 2.460678,-1.5136 3.492188,-2.4043 z"
       id="path4167"
       inkscape:connector-curvature="0" />
    <path
       style="fill:url(#linearGradient4251);fill-opacity:1;fill-rule:evenodd;stroke:none;stroke-width:1px;stroke-linecap:butt;stroke-linejoin:miter;stroke-opacity:1"
       d="m 75.061382,980.0533 c -25.29854,5.17 -37.263524,-11.63265 -37.263524,-11.63265 0,0 6.881894,26.20195 39.566576,21.26085 7.166418,-1.0833 -2.303052,-9.6282 -2.303052,-9.6282 z"
       id="path4201"
       inkscape:connector-curvature="0"
       sodipodi:nodetypes="ccsc" />
    <path
       style="opacity:1;fill:#00759b;fill-opacity:1;stroke:none;stroke-width:2;stroke-linecap:round;stroke-linejoin:round;stroke-miterlimit:4;stroke-dasharray:none;stroke-dashoffset:0;stroke-opacity:1"
       d="m 74,900.36216 a 64,64 0 0 0 -64,64 64,64 0 0 0 1.630859,14.10938 c 21.61375,-10.78047 25.988087,-22.11253 27.185547,-24.32813 3.054607,-5.65171 1.749601,-14.89986 -6.839844,-18.1582 10.755446,-2.51733 17.697266,4.20898 17.697266,4.20898 0,0 2.026137,-4.36157 -16.064453,-13.26953 11.693156,0.58181 16.530211,3.53946 24.523437,9.19531 -2.510908,-7.40772 -9.732579,-11.33978 -18.458984,-15.9707 9.109783,0.84005 17.743086,4.17037 30.490234,14.00586 -4.595908,-7.51345 -7.8105,-8.87341 -16.017578,-14.01953 15.966653,3.69401 21.099437,7.71544 29.431641,17.83594 6.463635,6.8009 8.974605,17.89843 8.974605,17.89843 1e-5,0 28.05043,-0.20808 38.19336,12.74414 -28.18046,-4.75476 -43.398434,0.95118 -43.398434,0.95118 0,0 -9.492339,8.97661 -17.21875,11.19531 -5.040961,1.44762 -31.552763,15.8715 -38.277344,31.6563 a 64,64 0 0 0 42.148438,15.9453 64,64 0 0 0 64,-64.00004 64,64 0 0 0 -64,-64 z m -4.462891,49.2793 c -0.657842,0.007 -1.305838,0.11092 -1.916015,0.33789 -2.058278,0.76561 -4.430724,2.78593 -2.650391,6.4082 1.191524,2.42428 4.062489,3.56905 8.027344,1.99414 3.393003,-1.34777 3.978339,-4.63449 2.867187,-5.9375 -1.004733,-1.17821 -2.844084,-2.26621 -4.789062,-2.6543 -0.291739,-0.0583 -0.584965,-0.10036 -0.878906,-0.125 -0.220463,-0.0184 -0.440876,-0.0259 -0.660157,-0.0234 z m 26.365231,9.68945 c -0.70368,0.0189 -2.32137,0.16429 -3.99804,1.02539 3.01662,0.49527 4.47461,0.69141 4.47461,0.69141 l -0.10938,-1.71485 c 0,0 -0.13263,-0.008 -0.36719,-0.002 z"
       id="circle4162"
       inkscape:connector-curvature="0" />
    <path
       style="fill:#f16800;fill-opacity:1;fill-rule:evenodd;stroke:none;stroke-width:1px;stroke-linecap:butt;stroke-linejoin:miter;stroke-opacity:1"
       d="m 34.070312,1000.1883 -7.96289,6.3282 a 64,64 0 0 0 5.826172,5.8847 l 2.136718,-12.2129 z"
       id="path4199"
       inkscape:connector-curvature="0" />
    <path
       style="color:#000000;font-style:normal;font-variant:normal;font-weight:normal;font-stretch:normal;font-size:medium;line-height:0%;font-family:'Haydon Brush PERSONAL USE';-inkscape-font-specification:'Haydon Brush PERSONAL USE';text-indent:0;text-align:center;text-decoration:none;text-decoration-line:none;text-decoration-style:solid;text-decoration-color:#000000;letter-spacing:0px;word-spacing:0px;text-transform:none;direction:ltr;block-progression:tb;writing-mode:lr-tb;baseline-shift:baseline;text-anchor:middle;white-space:normal;clip-rule:nonzero;display:inline;overflow:visible;visibility:visible;opacity:1;isolation:auto;mix-blend-mode:normal;color-interpolation:sRGB;color-interpolation-filters:linearRGB;solid-color:#000000;solid-opacity:1;fill:#fff6d5;fill-opacity:1;fill-rule:nonzero;stroke:none;stroke-width:15;stroke-linecap:butt;stroke-linejoin:miter;stroke-miterlimit:4;stroke-dasharray:none;stroke-dashoffset:0;stroke-opacity:1;color-rendering:auto;image-rendering:auto;shape-rendering:auto;text-rendering:auto;enable-background:accumulate"
       d="m 68.050781,996.4696 c 0,0 -0.772218,0.3596 -1.132812,0.5879 -1.441184,0.9038 -2.806142,1.9203 -4.083985,3.0371 -3.077495,2.6968 -5.531955,5.7206 -7.667968,9.0156 l 0.02148,0.01 c -0.951645,1.7207 -1.71789,3.295 -1.230463,5.2891 2.41745,7.9165 0.835048,9.4829 -0.03906,10.1289 -0.874108,0.6459 -4.025894,2.6029 -4.863281,4.1308 l -0.06836,0.1211 -0.06055,0.1231 c -0.65099,1.2995 -1.192113,3.0386 -1.076172,5.0722 0.111956,1.1327 0.335051,2.2532 0.714854,3.2051 1.550275,3.0213 3.621332,4.8223 7.076174,5.4492 2.342057,0.3365 4.331906,0.3276 6.523428,0.1503 5.012735,-0.6119 8.869804,-1.6048 12.945313,-3.8985 1.497461,3.711 4.289243,5.9382 8.304709,6.1057 4.257125,-0.2596 7.533632,-2.0236 8.822262,-6.2266 1.17638,-2.9397 2.36917,-5.5377 3.67384,-8.1561 2.5094,-0.9868 5.02423,-2.273 6.98044,-3.8225 0.98643,0.4634 2.04806,0.7935 3.10743,0.9063 2.6778,4.0433 5.53265,9.435 10.84764,9.3983 8.99462,-0.7628 9.01989,-5.2684 13.06451,-11.6993 l 0.0332,-0.053 0.0332,-0.055 c 0.26584,-0.4368 0.51947,-0.8223 0.78321,-1.25 l 1.42578,-0.084 c 0.0181,3.8638 1.46809,8.0484 5.85351,8.2891 4.38542,0.2407 7.96846,-0.8838 10.26952,-4.3007 0.94114,-1.7248 2.05145,-3.4914 3.10555,-5.039 3.64362,1.1052 7.67691,-0.3014 10.65802,-1.7183 4.02811,-3.2053 8.11166,-7.0485 8.45896,-10.334 0.3473,-3.2854 -0.97471,-4.5145 -2.11331,-6.0508 0.20918,-0.8968 0.29703,-1.7555 0.25195,-2.4628 l -0.0195,-0.2891 -0.0391,-0.2852 c -0.28891,-2.042 -1.91733,-4.7191 -3.88281,-5.916 l -0.002,0 -0.002,0 c -3.2072,-1.8413 -6.57718,-2.4657 -9.61719,-2.2695 l -0.002,0 -0.002,0 c -2.14992,0.1696 -4.63055,1.4698 -5.98633,3.0586 -0.8167,0.9571 -1.35027,2.2951 -1.69531,3.6816 -0.67118,-1.9792 -2.05507,-3.7774 -3.55079,-4.9101 -1.80848,-1.3815 -4.30461,-2.1196 -6.43164,-2.0703 -0.73713,-1.4192 -1.81477,-2.6952 -2.94726,-3.504 -1.72991,-1.2324 -4.44125,-2.0296 -6.75,-1.6875 l 0,0.01 c -0.54689,0.081 -1.10657,0.2333 -1.66016,0.4395 -1.25352,-1.4218 -3.1115,-2.5844 -4.73633,-3.0508 -0.99566,-0.2741 -2.19782,-0.3465 -3.39843,-0.1894 l 0,0 c -2.70736,0.454 -4.5944,1.5971 -6.16016,3.83 -2.68274,3.7199 -5.24222,7.2895 -7.44336,10.8106 -1.69091,-0.4654 -3.4316,-0.7576 -4.96289,-0.5702 -0.88189,-1.3452 -2.0925,-2.511 -3.31055,-3.2012 -0.90452,-0.5115 -2.01381,-0.9105 -3.19921,-1.0957 -1.23737,-0.1932 -2.53322,-0.1772 -3.687504,0.1191 -0.645947,0.1659 -1.29637,0.4418 -1.927735,0.7852 -0.87657,-0.7139 -1.85977,-1.315 -2.888671,-1.7481 -1.126008,-0.4739 -2.335616,-0.7761 -3.548829,-0.9297 -1.100836,-0.1621 -2.723553,-0.2471 -3.357421,-0.125 -0.633868,0.1222 -0.892473,0.2339 -1.244144,0.2969 -3.614803,0.51 -8.165645,2.9466 -8.165645,2.9466 z"
       id="path3418"
       inkscape:connector-curvature="0"
       sodipodi:nodetypes="cccccczccccccccccccccccccczccczccccccccccsccccccccccccccccccczccc" />
    <g
       id="g3454"
       style="fill:#00759b;fill-opacity:1"
       transform="translate(18,-22)">
      <path
         d="m 41.96151,1035.4338 q 0.657322,-1.0156 1.184863,-1.7331 0.527541,-0.7176 0.941929,-1.2287 0.402728,-0.5511 0.720591,-0.9473 0.317863,-0.3962 0.647386,-0.7525 1.334721,-1.5168 2.79101,-2.7655 1.484578,-1.3004 3.170622,-2.356 1.646096,-1.0441 3.425421,-1.7802 1.819273,-0.7478 3.761839,-0.9246 0.845608,-0.073 1.709568,0.065 0.8523,0.098 1.643056,0.4308 0.790755,0.3328 1.400121,0.9352 0.597705,0.5626 0.934124,1.4181 0.34808,0.8955 0.261695,1.7878 -0.0581,0.8406 -0.419152,1.683 -0.321107,0.8307 -0.865276,1.6398 -0.515881,0.7575 -1.026794,1.3835 -1.021826,1.2519 -2.170188,2.3675 -1.120075,1.0639 -2.331706,2.1111 0.795723,0.2013 1.501614,0.6889 0.734179,0.436 1.298628,1.1816 1.025681,1.4347 1.012705,3.1726 0.02697,1.7262 -0.638562,3.3077 -0.698791,1.7646 -1.850397,3.3146 -1.151607,1.55 -2.596237,2.8387 -2.990752,2.8237 -6.765772,4.4458 -3.746731,1.5705 -7.695132,1.8559 -0.502701,0.06 -1.320021,0.082 -0.777371,0.01 -1.606351,-0.01 -0.84064,-0.058 -1.601383,-0.1395 -0.732455,-0.133 -1.065426,-0.3827 -0.281362,-0.2213 -0.426252,-0.5692 -0.156549,-0.3878 -0.169933,-0.7307 -0.0434,-0.5943 0.312691,-1.3051 0.396035,-0.7226 1.05853,-0.8292 0.119845,-0.035 0.26301,0.01 0.183114,0.033 0.497733,0.072 0.314619,0.038 0.8523,0.098 0.537681,0.06 1.378321,0.118 1.995899,0.1544 3.931773,-0.1939 1.935874,-0.3483 3.830076,-0.9879 1.894202,-0.6396 3.615226,-1.5754 1.749312,-0.9875 3.24555,-2.2479 1.428002,-1.1971 2.631217,-2.7188 1.191556,-1.5616 1.575727,-3.3645 0.161314,-0.784 0.05465,-1.4465 -0.07838,-0.7141 -0.596186,-1.3 -0.569417,-0.6141 -1.290212,-0.7072 -0.732455,-0.133 -1.531422,0.1002 -0.77068,0.1816 -1.523007,0.5746 -0.763987,0.353 -1.35652,0.6994 l -2.789491,2.028 q -0.642214,1.6614 -1.232819,3.3511 -0.562318,1.6381 -1.061367,3.3444 -0.134749,0.4295 -0.246178,0.9389 -0.08314,0.4578 -0.539201,0.6776 -1.163471,0.4697 -2.105808,-0.3824 -0.41956,-0.3978 -0.251554,-1.0104 0.168006,-0.6126 0.251146,-1.0704 0.156346,-0.6525 0.312691,-1.3051 0.156346,-0.6526 0.312691,-1.3051 l -0.01166,-0.04 q -0.223062,-0.022 -0.469444,-0.123 -0.246383,-0.1015 -0.39624,-0.3179 -0.4662,-0.5576 -0.344835,-1.33 0.07817,-0.3262 0.396036,-0.7225 0.346151,-0.4478 0.783859,-0.8791 0.437708,-0.4312 0.858788,-0.7708 0.42108,-0.3397 0.665738,-0.5412 1.164583,-3.2878 2.558921,-6.3826 1.394337,-3.0948 3.098325,-6.0198 -0.990293,0.7659 -1.893998,1.6799 -0.915365,0.8741 -1.739172,1.7649 -1.868954,2.0628 -3.473173,4.4385 -0.447644,0.6942 -0.737219,1.0389 -0.301235,0.3046 -1.113587,0.1949 -1.047073,-0.1712 -1.611523,-0.9168 -0.536161,-0.7973 -0.02697,-1.7262 z m 14.004844,-6.0819 q 0.346355,0.5925 0.02352,1.1202 -0.294543,0.4762 -0.549137,0.9406 -0.723835,1.3818 -1.221364,2.3507 -0.509188,0.929 -0.865276,1.6398 -0.356087,0.7109 -0.587361,1.2553 -0.242935,0.5044 -0.485869,1.0088 0.296267,-0.1732 0.615854,-0.2664 0.347875,-0.1449 0.655802,-0.2782 1.980587,-1.5318 3.874585,-3.2118 1.933946,-1.6916 3.420044,-3.7294 0.277915,-0.3845 0.560797,-0.9006 0.322831,-0.5278 0.474209,-1.0488 0.179665,-0.5727 0.119641,-1.0754 -0.06003,-0.5027 -0.59943,-0.8655 -0.476136,-0.2945 -1.013817,-0.3543 -0.549341,-0.1 -1.131939,-0.016 -0.594257,0.043 -1.193483,0.2183 -0.570937,0.1233 -1.038658,0.3032 -1.722748,0.6329 -3.169102,1.6186 0.669187,0.065 1.196931,0.3876 0.567694,0.3112 0.914049,0.9038 z"
         style="font-style:normal;font-variant:normal;font-weight:normal;font-stretch:normal;font-size:medium;line-height:0%;font-family:'Haydon Brush PERSONAL USE';-inkscape-font-specification:'Haydon Brush PERSONAL USE';text-align:center;letter-spacing:0px;word-spacing:0px;text-anchor:middle;fill:#00759b;fill-opacity:1;stroke:none;stroke-width:1px;stroke-linecap:butt;stroke-linejoin:miter;stroke-opacity:1"
         id="path3332"
         inkscape:connector-curvature="0" />
      <path
         d="m 67.361063,1047.4434 q -0.755513,0.2369 -1.513185,0.1307 -0.76802,-0.1466 -1.306696,-0.7387 -0.629639,-0.6117 -0.76631,-1.4789 -0.17698,-0.8568 -0.09142,-1.6951 0.119395,-1.8781 0.915846,-3.6293 0.745796,-1.7811 1.562941,-3.4517 0.388418,-0.8301 0.787183,-1.6199 0.428727,-0.8404 0.918456,-1.6106 0.20973,-0.3546 0.419459,-0.7092 0.250039,-0.3649 0.642776,-0.5087 0.685243,-0.1759 1.222839,0.2446 0.537596,0.4206 0.763071,0.9642 0.08278,0.3225 0.01359,0.5551 -0.03923,0.1819 -0.178689,0.4755 -0.968032,1.7522 -1.865793,3.4435 -0.897762,1.6912 -1.592902,3.5023 -0.496837,1.2446 -0.622711,2.0932 -0.125873,0.8487 0.07783,1.1401 0.203702,0.2914 0.705938,-0.095 0.542544,-0.397 1.342234,-1.6335 0.429807,-0.6688 0.93915,-1.53 0.539305,-0.9118 1.587954,-2.6847 0.209729,-0.3546 0.379151,-0.6988 0.199382,-0.3949 0.52077,-0.6493 0.582852,-0.4074 1.22068,-0.099 0.667788,0.2582 0.722763,0.9745 0.02285,0.4238 -0.186877,0.7784 -0.179768,0.3039 -0.389498,0.6585 l -0.858533,1.5093 q -0.419459,0.7092 -0.838918,1.4184 -0.41946,0.7091 -0.879228,1.4287 -0.909188,1.4793 -1.761693,2.3426 -0.812197,0.853 -1.890178,1.1726 z m 5.097841,-19.1388 q -0.725552,0.1862 -1.384073,-0.2033 -0.668868,-0.4298 -0.844768,-1.115 -0.186247,-0.7256 0.203251,-1.3841 0.389498,-0.6585 1.11505,-0.8448 0.685243,-0.1759 1.343764,0.2136 0.69883,0.3792 0.885077,1.1047 0.1759,0.6853 -0.203251,1.3841 -0.389498,0.6585 -1.11505,0.8448 z"
         style="font-style:normal;font-variant:normal;font-weight:normal;font-stretch:normal;font-size:medium;line-height:0%;font-family:'Haydon Brush PERSONAL USE';-inkscape-font-specification:'Haydon Brush PERSONAL USE';text-align:center;letter-spacing:0px;word-spacing:0px;text-anchor:middle;fill:#00759b;fill-opacity:1;stroke:none;stroke-width:1px;stroke-linecap:butt;stroke-linejoin:miter;stroke-opacity:1"
         id="path3334"
         inkscape:connector-curvature="0" />
      <path
         d="m 74.481853,1045.574 q -0.658758,0.1054 -1.331681,-0.042 -0.682052,-0.1879 -1.166131,-0.6335 -1.482421,2.8925 -2.991278,6.0468 -1.558588,3.1229 -3.222921,7.2933 -0.139114,0.3299 -0.228498,0.6912 -0.08939,0.3613 -0.377688,0.5967 -0.482185,0.3217 -1.046521,0.278 -0.59581,0.01 -1.021032,-0.3676 -0.533809,-0.4772 -0.480936,-1.0009 0.03966,-0.3928 0.210243,-0.7724 0.129986,-0.3705 0.259972,-0.7409 1.578092,-4.3643 3.590534,-8.3143 1.962711,-3.9815 3.943679,-7.8819 l 4.621941,-9.2286 q 0.10764,-0.2801 0.233536,-0.479 0.125896,-0.199 0.441583,-0.3126 0.315687,-0.1136 0.667886,-0.065 0.352199,0.049 0.890098,0.3544 0.918731,-0.8464 1.666873,-1.3132 0.739015,-0.5073 1.740844,-0.6046 0.9927,-0.1379 1.788377,0.3657 0.836278,0.4945 1.149769,1.3197 0.427116,1.141 0.276678,2.3691 -0.118964,1.1784 -0.518051,2.2492 -0.82052,2.2318 -2.1333,4.3611 -1.31278,2.1292 -3.118767,3.7722 -0.815181,0.7378 -1.748077,1.3314 -0.942024,0.553 -2.097132,0.7274 z m 2.736343,-5.0939 q 0.83249,-1.0402 1.484316,-2.1251 0.692428,-1.0941 1.276268,-2.2917 0.327958,-0.6282 0.615315,-1.2473 0.278228,-0.6597 0.466125,-1.3418 0.01322,-0.1309 0.07113,-0.4425 0.09851,-0.3207 0.07522,-0.6141 0.01731,-0.3024 -0.07806,-0.5369 -0.09537,-0.2345 -0.397838,-0.2518 -0.333943,0.032 -0.734924,0.3358 -0.400982,0.3034 -0.806053,0.7784 -0.373598,0.4252 -0.697466,0.8819 -0.332995,0.4161 -0.530967,0.6739 -1.35842,1.9262 -2.477318,3.9692 -1.118899,2.043 -2.12921,4.1896 0.03242,0.3339 0.218122,0.5908 0.176573,0.2162 0.501388,0.1432 0.812038,-0.1826 1.649565,-1.0107 0.828399,-0.8687 1.49439,-1.7009 z"
         style="font-style:normal;font-variant:normal;font-weight:normal;font-stretch:normal;font-size:medium;line-height:0%;font-family:'Haydon Brush PERSONAL USE';-inkscape-font-specification:'Haydon Brush PERSONAL USE';text-align:center;letter-spacing:0px;word-spacing:0px;text-anchor:middle;fill:#00759b;fill-opacity:1;stroke:none;stroke-width:1px;stroke-linecap:butt;stroke-linejoin:miter;stroke-opacity:1"
         id="path3336"
         inkscape:connector-curvature="0" />
      <path
         d="m 97.761823,1036.2982 q -0.860052,0.1551 -1.544868,0.1094 -1.712097,2.4653 -3.858565,4.1632 -0.670729,0.5015 -1.553617,0.999 -0.841932,0.4901 -1.761741,0.7828 -0.886239,0.2443 -1.749643,0.1463 -0.904358,-0.091 -1.584459,-0.8138 -0.624377,-0.6485 -0.745878,-1.5569 -0.16984,-0.942 -0.03084,-1.8128 0.229655,-1.7751 1.084369,-3.367 0.854714,-1.5918 1.724196,-3.1017 1.947773,-3.269 3.958654,-6.4225 2.003496,-3.1944 4.23392,-6.3029 0.469987,-0.6767 0.98093,-1.3608 0.503558,-0.7251 1.055455,-1.4167 0.242378,-0.2974 0.477372,-0.6357 0.268564,-0.3868 0.566666,-0.6097 0.380011,-0.2376 0.826482,-0.1067 0.487424,0.1236 0.847954,0.4814 0.35314,0.3169 0.51628,0.7527 0.16314,0.4357 -0.0235,0.8076 -0.19404,0.331 -0.47737,0.6358 -0.24238,0.2975 -0.48476,0.5949 -1.879948,2.707 -3.148244,4.5848 -1.27568,1.8369 -2.40231,3.5623 1.050059,-0.2739 2.095402,0.1297 1.037959,0.3625 1.598546,1.3609 0.623695,1.1139 0.510202,2.3606 -0.113493,1.2468 -0.591547,2.3479 l -0.545195,1.1977 q 1.493178,-0.3961 2.570786,-1.6898 0.20881,-0.2491 0.38404,-0.4498 0.20881,-0.2491 0.52907,-0.3492 0.63312,-0.241 1.17962,0.2102 0.44982,0.3841 0.43034,0.9796 -0.0228,0.3424 -0.22426,0.6324 -0.16785,0.2417 -0.3357,0.4834 -0.8688,1.0447 -2.04979,1.7651 -1.147422,0.672 -2.457978,0.9083 z m -6.266097,1.1298 q 0.425,-0.4572 0.849999,-0.9144 0.417615,-0.4982 0.786891,-1.0299 -0.806998,-0.4888 -1.405189,-1.2267 -0.605575,-0.7788 -0.872093,-1.7879 l -1.619452,2.7446 q -0.287366,0.517 -0.627105,1.2125 -0.347123,0.6546 -0.645906,1.3428 -0.306168,0.6472 -0.455901,1.2239 -0.108778,0.5693 0.06578,0.8339 0.18194,0.3055 0.666014,0.1759 0.47669,-0.1705 1.039323,-0.568 0.555248,-0.4384 1.136683,-0.9661 0.615005,-0.576 1.080959,-1.0406 z m 3.185168,-4.3801 q 0.160468,-0.2826 0.433065,-0.8815 0.313553,-0.6063 0.537811,-1.2387 0.216874,-0.6734 0.243742,-1.228 0.06044,-0.6029 -0.311507,-0.7895 -0.371945,-0.1867 -0.766725,-0.031 -0.36121,0.1074 -0.666696,0.2893 -0.868118,0.5794 -1.003764,1.7033 -0.09469,1.1165 0.559223,1.9289 0.126216,0.231 0.326957,0.4062 0.193357,0.1343 0.427669,0.2612 0.119513,-0.2753 0.220225,-0.4203 z"
         style="font-style:normal;font-variant:normal;font-weight:normal;font-stretch:normal;font-size:medium;line-height:0%;font-family:'Haydon Brush PERSONAL USE';-inkscape-font-specification:'Haydon Brush PERSONAL USE';text-align:center;letter-spacing:0px;word-spacing:0px;text-anchor:middle;fill:#00759b;fill-opacity:1;stroke:none;stroke-width:1px;stroke-linecap:butt;stroke-linejoin:miter;stroke-opacity:1"
         id="path3338"
         inkscape:connector-curvature="0" />
      <path
         d="m 102.81896,1039.9491 q -0.77605,0.1571 -1.51857,-0.027 -0.74862,-0.2256 -1.22281,-0.8705 -0.562629,-0.6739 -0.608404,-1.5506 -0.08694,-0.8705 0.08531,-1.6954 0.314008,-1.8555 1.288204,-3.5144 0.92693,-1.6939 1.91333,-3.2705 0.47261,-0.7852 0.95133,-1.5292 0.51378,-0.7914 1.08093,-1.5065 0.24545,-0.3308 0.49092,-0.6617 0.28662,-0.3369 0.69217,-0.4391 0.69982,-0.1037 1.19079,0.3704 0.49096,0.4742 0.65868,1.0383 0.0488,0.3293 -0.0442,0.5535 -0.0579,0.1768 -0.22716,0.4543 -1.14496,1.6421 -2.21368,3.2309 -1.06873,1.5887 -1.9484,3.3177 -0.62353,1.1862 -0.83695,2.0172 -0.21342,0.8309 -0.0411,1.142 0.17229,0.311 0.71202,-0.021 0.58088,-0.3385 1.50478,-1.4851 0.49702,-0.6206 1.09313,-1.4241 0.63118,-0.8508 1.85847,-2.5051 0.24546,-0.3308 0.44975,-0.6556 0.23936,-0.372 0.58545,-0.5916 0.62205,-0.3446 1.22431,0.029 0.63732,0.3263 0.61753,1.0444 -0.0213,0.4239 -0.26679,0.7547 -0.21039,0.2836 -0.45585,0.6145 l -1.0108,1.4119 q -0.49091,0.6617 -0.98183,1.3234 -0.49091,0.6617 -1.023,1.3296 -1.05806,1.3768 -1.9957,2.1468 -0.89647,0.7639 -2.00185,0.9697 z m 7.06,-18.5051 q -0.74098,0.1098 -1.35544,-0.3461 -0.62056,-0.497 -0.72426,-1.1968 -0.10981,-0.741 0.34604,-1.3554 0.45585,-0.6145 1.19684,-0.7243 0.69981,-0.1037 1.31427,0.3521 0.65563,0.4498 0.76543,1.1908 0.10371,0.6998 -0.34605,1.3554 -0.45585,0.6145 -1.19683,0.7243 z"
         style="font-style:normal;font-variant:normal;font-weight:normal;font-stretch:normal;font-size:medium;line-height:0%;font-family:'Haydon Brush PERSONAL USE';-inkscape-font-specification:'Haydon Brush PERSONAL USE';text-align:center;letter-spacing:0px;word-spacing:0px;text-anchor:middle;fill:#00759b;fill-opacity:1;stroke:none;stroke-width:1px;stroke-linecap:butt;stroke-linejoin:miter;stroke-opacity:1"
         id="path3340"
         inkscape:connector-curvature="0" />
      <path
         d="m 110.07014,1038.848 q -0.66601,0.039 -1.32075,-0.1754 -0.65973,-0.2554 -1.09662,-0.7474 -1.76535,2.729 -3.58329,5.716 -1.86426,2.9506 -3.9389,6.9328 -0.171533,0.3142 -0.296744,0.6647 -0.125211,0.3506 -0.435696,0.5559 -0.512045,0.2716 -1.069137,0.1714 -0.593401,-0.054 -0.978963,-0.4683 -0.483205,-0.5283 -0.378014,-1.0441 0.07889,-0.3868 0.28673,-0.7474 0.166524,-0.3555 0.333049,-0.711 2.008302,-4.1838 4.407175,-7.9118 2.35255,-3.7643 4.71511,-7.4461 l 5.52517,-8.7179 q 0.13523,-0.2679 0.28046,-0.4532 0.14523,-0.1852 0.47073,-0.2666 0.3255,-0.081 0.67102,0 0.34552,0.084 0.85002,0.442 0.99906,-0.7498 1.79029,-1.1391 0.78622,-0.4306 1.79275,-0.4268 1.00153,-0.037 1.74263,0.5434 0.7824,0.5759 1.01145,1.4285 0.3104,1.1781 0.0374,2.3849 -0.23668,1.1605 -0.74126,2.1858 -1.04046,2.1382 -2.56039,4.1248 -1.51993,1.9867 -3.48175,3.4401 -0.88514,0.6522 -1.87292,1.1491 -0.99279,0.4557 -2.15957,0.5132 z m 3.23396,-4.7934 q 0.93272,-0.9514 1.69019,-1.9654 0.79877,-1.019 1.49991,-2.1519 0.38937,-0.5921 0.73744,-1.1793 0.34306,-0.6284 0.59848,-1.2881 0.0263,-0.129 0.11521,-0.4332 0.13021,-0.3092 0.13649,-0.6034 0.0476,-0.2992 -0.0238,-0.5421 -0.0713,-0.2429 -0.37054,-0.2904 -0.33551,0 -0.76493,0.2603 -0.42942,0.2616 -0.88013,0.6935 -0.41441,0.3856 -0.78249,0.8074 -0.37309,0.3806 -0.59594,0.6172 -1.54496,1.7801 -2.86333,3.7005 -1.31837,1.9203 -2.5391,3.9546 -0.001,0.3355 0.15771,0.6097 0.15397,0.2328 0.48447,0.1928 0.82627,-0.1001 1.7427,-0.8399 0.91144,-0.7812 1.65762,-1.5423 z"
         style="font-style:normal;font-variant:normal;font-weight:normal;font-stretch:normal;font-size:medium;line-height:0%;font-family:'Haydon Brush PERSONAL USE';-inkscape-font-specification:'Haydon Brush PERSONAL USE';text-align:center;letter-spacing:0px;word-spacing:0px;text-anchor:middle;fill:#00759b;fill-opacity:1;stroke:none;stroke-width:1px;stroke-linecap:butt;stroke-linejoin:miter;stroke-opacity:1"
         id="path3342"
         inkscape:connector-curvature="0" />
    </g>
    <g
       id="g3462"
       transform="translate(18,-22)">
      <path
         d="m 125.39936,1035.0019 q -0.0178,0.2526 -0.23879,0.5662 -0.18351,0.2682 -0.44988,0.5444 -0.22887,0.2308 -0.54455,0.428 -0.27424,0.1933 -0.43601,0.2505 -0.4439,0.1676 -1.00216,0.012 -0.52078,-0.2013 -0.84623,-0.5465 -0.85206,-1.0477 0.0102,-2.0912 0.3749,-0.4536 0.92338,-0.8402 0.54455,-0.428 1.14424,-0.276 0.64113,0.148 1.03164,0.738 0.428,0.5445 0.40817,1.2152 z"
         style="font-style:normal;font-variant:normal;font-weight:normal;font-stretch:normal;font-size:medium;line-height:0%;font-family:'Haydon Brush PERSONAL USE';-inkscape-font-specification:'Haydon Brush PERSONAL USE';text-align:center;letter-spacing:0px;word-spacing:0px;text-anchor:middle;fill:#f1a100;fill-opacity:1;stroke:none;stroke-width:1px;stroke-linecap:butt;stroke-linejoin:miter;stroke-opacity:1"
         id="path3344"
         inkscape:connector-curvature="0" />
      <path
         d="m 134.41559,1029.3295 q -0.008,0.2642 -0.19827,0.4548 -0.16306,0.1592 -0.32612,0.3184 l -0.75253,0.8499 q -1.02047,1.1637 -1.73931,2.0695 -0.72114,0.8766 -1.25013,1.5917 -0.50219,0.6837 -0.8949,1.2709 -0.39502,0.5582 -0.79234,1.0872 -0.76553,1.0558 -1.49967,2.1383 -0.76553,1.0559 -1.52188,2.228 -0.78773,1.1454 -1.59077,2.4676 -0.80532,1.293 -1.62366,2.7921 -0.12938,0.2152 -0.22965,0.428 -0.1003,0.2129 -0.32613,0.3185 -0.3958,0.1777 -0.81688,0.035 -0.45018,-0.1401 -0.686,-0.5312 -0.17533,-0.3668 0.0253,-0.7925 0.12708,-0.2442 0.25416,-0.4884 0.098,-0.2419 0.22506,-0.4862 1.52719,-2.9016 3.366,-5.5644 1.80971,-2.6606 3.7427,-5.243 0.79692,-1.0289 1.59614,-2.0289 0.79692,-1.029 1.65433,-2.0335 0.37512,-0.4395 0.75253,-0.8499 0.37511,-0.4393 0.78163,-0.852 0.19215,-0.1616 0.35981,-0.2627 0.16536,-0.1301 0.43178,-0.093 0.47238,0.051 0.73498,0.4104 0.29171,0.3574 0.3239,0.7647 z m 1.9804,-3.4644 q -0.52367,0.041 -0.93174,-0.307 -0.41038,-0.3773 -0.44945,-0.8719 -0.0414,-0.5237 0.30696,-0.9317 0.34832,-0.4082 0.87198,-0.4495 0.52367,-0.041 0.93174,0.307 0.40807,0.3482 0.44944,0.8719 0.0391,0.4946 -0.30695,0.9317 -0.34833,0.4081 -0.87198,0.4495 z"
         style="font-style:normal;font-variant:normal;font-weight:normal;font-stretch:normal;font-size:medium;line-height:0%;font-family:'Haydon Brush PERSONAL USE';-inkscape-font-specification:'Haydon Brush PERSONAL USE';text-align:center;letter-spacing:0px;word-spacing:0px;text-anchor:middle;fill:#f1a100;fill-opacity:1;stroke:none;stroke-width:1px;stroke-linecap:butt;stroke-linejoin:miter;stroke-opacity:1"
         id="path3346"
         inkscape:connector-curvature="0" />
      <path
         d="m 134.97482,1038.1231 q -0.85016,-0.034 -1.57332,-0.3673 -0.72314,-0.334 -1.19535,-0.8594 -0.50133,-0.5236 -0.66248,-1.2151 -0.19214,-0.7187 0.0489,-1.5238 0.0942,-0.3569 0.43621,-0.4957 0.31291,-0.137 0.63885,-0.071 0.29495,0.039 0.51557,0.2887 0.21875,0.22 0.12458,0.5769 -0.23168,0.9506 0.32789,1.4704 0.53045,0.5217 1.37504,0.4678 0.66984,-0.042 1.2498,-0.577 0.5781,-0.5633 0.80112,-1.1917 0.10162,-0.2403 0.14312,-0.5062 0.0688,-0.2968 0.0737,-0.6772 0.034,-0.3824 0.0296,-0.9085 -0.007,-0.5552 -0.0274,-1.3434 -0.0565,-1.3415 0.0333,-2.2246 0.0898,-0.8829 0.20005,-1.4456 0.13753,-0.5937 0.29366,-0.896 0.15428,-0.3315 0.25775,-0.5428 0.39405,-0.6978 1.03598,-1.1775 0.66918,-0.5107 1.51377,-0.5645 0.40773,-0.026 0.71198,0.1591 0.30427,0.1853 0.35758,0.5621 0.0167,0.262 -0.0885,0.4442 -0.0762,0.1804 -0.24165,0.3372 -0.1673,0.1276 -0.36558,0.2281 -0.19828,0.1003 -0.36557,0.228 -0.47463,0.3519 -0.7361,0.8366 -0.23234,0.4827 -0.3172,0.9852 -0.21308,1.2418 -0.16033,2.5251 0.0509,1.2542 -0.0148,2.5158 -0.0458,1.1142 -0.44849,2.1341 l 0.35628,-0.3737 2.2628,-2.5717 q 0.16357,-0.1859 0.32529,-0.4009 0.18897,-0.2461 0.41452,-0.3775 0.45482,-0.2044 0.85202,0.062 0.42634,0.2652 0.39973,0.7641 -0.0397,0.2949 -0.20322,0.4807 -0.16357,0.186 -0.32529,0.401 -0.49073,0.5578 -0.7615,0.8967 -0.27262,0.3098 -0.46346,0.5267 -0.16171,0.215 -0.29803,0.37 -0.13817,0.1258 -0.32902,0.3427 -1.26152,1.3087 -2.70402,2.0735 -1.41524,0.7337 -3.49789,0.6329 z"
         style="font-style:normal;font-variant:normal;font-weight:normal;font-stretch:normal;font-size:medium;line-height:0%;font-family:'Haydon Brush PERSONAL USE';-inkscape-font-specification:'Haydon Brush PERSONAL USE';text-align:center;letter-spacing:0px;word-spacing:0px;text-anchor:middle;fill:#f1a100;fill-opacity:1;stroke:none;stroke-width:1px;stroke-linecap:butt;stroke-linejoin:miter;stroke-opacity:1"
         id="path3348"
         inkscape:connector-curvature="0" />
    </g>
  </g>
</svg>
